# xmcd CD database file
#
# Track frame offsets:
#	150
#	14688
#	29378
#	42513
#	54447
#	68720
#	83377
#	95121
#	107534
#	121418
#	135010
#	148117
#	161501
#	172326
#	185987
#	200597
#	217061
#	231430
#	255908
#	269246
#
# Disc length: 3756 seconds
#
# Revision: 0
# Processed by: cddbd v1.5.2PL0 Copyright (c) Steve Scherf et al.
# Submitted via: CDex 1.51
#
DISCID=2e0eaa14
DTITLE=Various Artist - Vocal Jazz - The Absolutely Essential  [CD 1)
DYEAR=1900
DGENRE=Jazz
TTITLE0=Louis Armstrong-Ain't Misbehavin'
TTITLE1=Bing Crosby-June In January
TTITLE2=Billie Holiday-I've Got My Love To Keep Me Warm
TTITLE3=Ella-A-Tisket, A-Tasket
TTITLE4=Cab Calloway-Minnie The Moocher
TTITLE5=Betty Roche-Take The "A" Train
TTITLE6=Mildred Baily-Please Be Kind
TTITLE7=June Christy-Tampico
TTITLE8=Chet Baker-But Not For Me
TTITLE9=Mel Torme-What Is This Thing Called Love ?
TTITLE10=Anita O'Day-How High The Moon
TTITLE11=Tony Bennett-Because Of You
TTITLE12=Dinah Shore-Baby It's Cold Outside
TTITLE13=IRosemary Clooney-The Cool Cool Cool Of The Evening
TTITLE14=Nat King Cole-Unforgettable
TTITLE15=Nina Simone-My Baby Just Cares For Me
TTITLE16=Peggy Lee-Why Don't You Do Right
TTITLE17=Dinah Washington-I've Got You Under My Skin
TTITLE18=Frank Sinatra-I Get A Kick Out Of You
TTITLE19=Sarah Vaughan-Shulie A Bop
EXTD=
EXTT0=
EXTT1=
EXTT2=
EXTT3=
EXTT4=
EXTT5=
EXTT6=
EXTT7=
EXTT8=
EXTT9=
EXTT10=
EXTT11=
EXTT12=
EXTT13=
EXTT14=
EXTT15=
EXTT16=
EXTT17=
EXTT18=
EXTT19=
PLAYORDER=
